<?xml version="1.0" standalone="no"?>
<!DOCTYPE svg PUBLIC "-//W3C//DTD SVG 20010904//EN"
 "http://www.w3.org/TR/2001/REC-SVG-20010904/DTD/svg10.dtd">
<svg version="1.0" xmlns="http://www.w3.org/2000/svg"
 width="1280.000000pt" height="959.000000pt" viewBox="0 0 1280.000000 959.000000"
 preserveAspectRatio="xMidYMid meet">
<metadata>
Created by potrace 1.15, written by Peter Selinger 2001-2017
</metadata>
<g transform="translate(0.000000,959.000000) scale(0.100000,-0.100000)"
fill="#000000" stroke="none">
<path d="M0 7620 l0 -1970 196 0 c176 0 198 2 210 18 11 14 12 12 1 -16 -10
-28 -9 -38 8 -70 19 -35 28 -40 154 -85 73 -26 135 -46 137 -44 2 2 8 57 13
123 4 65 9 103 10 84 1 -21 4 -30 9 -23 6 9 81 13 287 15 154 2 289 7 300 11
16 7 17 7 5 -2 -11 -8 538 -11 1938 -11 1073 0 1954 0 1957 0 3 1 17 -8 32
-20 14 -11 30 -20 34 -20 5 0 18 -9 29 -20 25 -25 72 -26 93 -2 10 11 18 38
19 68 1 31 3 38 5 19 l4 -30 1791 2 c1677 3 1793 4 1812 20 12 10 -8 -13 -43
-50 -36 -36 -63 -69 -60 -71 2 -3 66 -39 141 -80 162 -90 191 -95 244 -42 46
46 48 104 6 145 -25 26 -27 30 -14 50 8 12 18 36 22 54 8 30 8 31 9 5 l1 -27
239 -3 240 -3 -22 24 -22 25 31 -25 c17 -13 29 -28 26 -33 -3 -5 0 -6 5 -3 6
4 45 -16 87 -43 42 -28 80 -50 85 -50 5 0 20 35 35 78 14 42 24 66 21 52 l-4
-25 582 0 c573 0 582 0 588 20 3 11 9 -29 13 -90 9 -136 12 -151 36 -175 45
-45 114 -31 139 28 11 23 21 32 38 32 36 0 73 43 73 83 0 50 -26 76 -100 98
-40 12 -50 17 -25 13 50 -9 -38 -8 728 -6 l657 2 0 1970 0 1970 -6400 0 -6400
0 0 -1970z m10535 -1920 c-3 -5 -12 -10 -18 -10 -7 0 -6 4 3 10 19 12 23 12
15 0z m-9155 -4 c0 -2 -8 -10 -17 -17 -16 -13 -17 -12 -4 4 13 16 21 21 21 13z
m1334 -35 c-3 -3 -15 6 -27 18 l-22 24 27 -19 c14 -10 24 -21 22 -23z m-1507
23 c-3 -3 -12 -4 -19 -1 -8 3 -5 6 6 6 11 1 17 -2 13 -5z m4020 -16 c-3 -8 -6
-5 -6 6 -1 11 2 17 5 13 3 -3 4 -12 1 -19z m5270 16 c-3 -3 -12 -4 -19 -1 -8
3 -5 6 6 6 11 1 17 -2 13 -5z m790 0 c-3 -3 -12 -4 -19 -1 -8 3 -5 6 6 6 11 1
17 -2 13 -5z m-10040 -10 c-3 -3 -12 -4 -19 -1 -8 3 -5 6 6 6 11 1 17 -2 13
-5z m10080 0 c-3 -3 -12 -4 -19 -1 -8 3 -5 6 6 6 11 1 17 -2 13 -5z m-10040
-10 c-3 -3 -12 -4 -19 -1 -8 3 -5 6 6 6 11 1 17 -2 13 -5z m10080 0 c-3 -3
-12 -4 -19 -1 -8 3 -5 6 6 6 11 1 17 -2 13 -5z"/>
<path d="M9715 5556 c10 -82 24 -115 50 -122 26 -7 65 11 65 29 0 7 10 17 23
22 28 12 36 65 12 85 -9 7 -47 19 -86 25 l-71 12 7 -51z"/>
<path d="M8228 5432 c-75 -75 -129 -138 -133 -155 -22 -88 58 -173 143 -152
15 3 35 13 44 22 16 14 20 13 48 -15 38 -39 85 -49 133 -29 77 33 91 106 39
204 -19 37 -32 75 -32 98 0 31 -8 45 -50 87 -27 28 -50 54 -50 59 0 21 -23 2
-142 -119z"/>
<path d="M12571 5400 c-68 -107 -72 -129 -31 -170 24 -24 82 -27 100 -5 9 11
17 12 30 5 56 -30 120 4 120 64 0 29 -13 50 -71 118 -40 46 -75 84 -78 86 -3
1 -35 -43 -70 -98z"/>
<path d="M4313 5415 c-17 -7 -38 -26 -46 -42 -28 -55 -110 -294 -103 -301 4
-4 47 -9 94 -12 l87 -5 5 -54 c6 -57 28 -85 76 -97 35 -9 87 25 99 64 7 26 14
32 36 32 16 0 31 5 35 12 4 7 13 -1 23 -22 31 -65 49 -71 212 -68 l146 3 -38
127 c-20 69 -42 136 -49 147 -16 31 -66 53 -100 46 -38 -8 -80 -58 -80 -96 0
-23 -6 -32 -32 -42 -31 -13 -34 -12 -41 7 -4 12 -22 35 -40 53 -18 17 -42 45
-55 61 -12 17 -35 33 -50 37 -25 5 -27 9 -24 39 5 46 -22 95 -63 112 -42 17
-51 17 -92 -1z"/>
<path d="M5525 5391 c-8 -13 23 -144 36 -152 28 -17 79 -1 79 25 0 8 9 16 20
19 29 7 37 54 14 77 -19 18 -141 43 -149 31z"/>
<path d="M6539 5371 c-16 -16 -29 -37 -29 -47 0 -9 -3 -15 -6 -11 -3 3 -19 1
-36 -5 -60 -21 -70 -107 -16 -141 21 -14 192 -57 224 -57 11 0 14 15 13 68 -1
121 -13 183 -38 203 -35 28 -77 24 -112 -10z"/>
<path d="M1429 5311 c-68 -43 -125 -83 -127 -89 -1 -5 48 -53 110 -106 100
-84 118 -96 151 -96 49 0 73 13 93 52 18 34 12 89 -11 108 -13 11 -11 16 10
42 37 44 34 91 -9 134 -51 51 -74 47 -217 -45z"/>
<path d="M7788 5322 c-65 -26 -118 -49 -118 -52 0 -8 150 -194 163 -202 7 -4
28 -8 49 -8 28 0 42 7 62 31 28 33 31 45 17 81 -7 19 -4 29 15 47 31 30 32 81
2 115 -37 41 -63 40 -190 -12z"/>
<path d="M2690 5315 c-28 -15 -39 -31 -74 -119 -20 -49 -25 -56 -30 -38 -11
34 -64 72 -100 72 -49 0 -79 -30 -139 -136 -46 -81 -55 -92 -61 -72 -3 13 -6
33 -6 46 0 12 -5 22 -10 22 -15 0 -192 -90 -212 -108 -47 -40 1 -139 62 -130
23 3 31 0 36 -14 3 -11 21 -26 39 -35 28 -13 39 -14 63 -4 34 14 57 59 49 92
-7 24 -15 25 148 -14 72 -17 109 -21 132 -15 35 9 73 50 73 79 0 22 -2 22 113
9 75 -9 93 -8 122 6 42 19 69 73 61 118 -7 34 -48 80 -81 90 -17 5 -20 13 -17
51 4 40 0 49 -31 80 -28 28 -43 35 -73 35 -22 -1 -50 -7 -64 -15z"/>
<path d="M10025 5255 c-50 -30 -96 -65 -103 -79 -26 -51 18 -114 73 -104 17 4
31 -2 46 -18 42 -45 129 -16 129 42 0 19 -46 203 -52 209 -1 2 -43 -21 -93
-50z"/>
<path d="M6021 5231 c-29 -29 -28 -74 4 -99 14 -11 25 -24 25 -30 0 -21 43
-62 65 -62 38 0 61 30 89 114 14 44 24 81 23 83 -2 2 -44 6 -94 9 -83 6 -92 5
-112 -15z"/>
<path d="M7444 5152 c-68 -76 -77 -94 -62 -127 13 -28 45 -40 82 -31 14 3 28
2 31 -4 7 -12 55 -13 71 -2 20 13 34 50 26 69 -12 31 -86 153 -92 152 -3 0
-28 -26 -56 -57z"/>
<path d="M10665 5179 c-4 -6 -19 -7 -36 -4 -43 10 -79 -17 -79 -56 0 -24 13
-45 61 -95 34 -35 66 -61 71 -58 16 10 78 143 78 167 0 13 -8 31 -18 40 -21
19 -67 23 -77 6z"/>
<path d="M6443 5098 c-17 -21 -21 -42 -12 -60 6 -10 5 -27 -2 -42 -16 -34 10
-76 46 -76 26 0 156 79 152 92 -1 4 -28 27 -61 52 -59 47 -104 59 -123 34z"/>
<path d="M6690 5067 c-34 -17 -53 -58 -41 -90 8 -20 6 -29 -10 -43 -30 -27
-26 -87 7 -113 15 -12 33 -21 41 -21 12 0 210 77 222 86 7 6 -131 169 -153
181 -27 16 -35 16 -66 0z"/>
<path d="M5808 5028 c-28 -28 -22 -52 33 -117 28 -34 52 -61 54 -61 11 0 85
132 85 152 0 37 -17 46 -89 45 -48 0 -69 -5 -83 -19z"/>
<path d="M10780 4984 c-160 -49 -200 -75 -200 -135 0 -68 67 -129 126 -115 20
5 24 3 24 -17 0 -45 59 -97 110 -97 34 0 78 28 95 60 20 39 22 351 3 349 -7 0
-78 -21 -158 -45z"/>
<path d="M11335 5011 c-69 -7 -69 -8 -30 -97 28 -64 56 -82 91 -59 13 8 24 23
24 33 0 9 9 23 20 30 28 17 27 66 -2 86 -12 9 -27 15 -33 14 -5 -1 -37 -4 -70
-7z"/>
<path d="M12653 4938 c-19 -22 -63 -136 -63 -165 0 -18 180 -19 198 -1 20 20
15 86 -8 98 -11 6 -20 17 -20 26 0 21 -45 64 -68 64 -10 0 -28 -10 -39 -22z"/>
<path d="M7915 4856 c-28 -12 -235 -227 -235 -244 0 -13 282 -142 310 -142 98
1 141 136 60 193 -21 15 -21 17 -6 38 34 50 9 131 -49 155 -41 17 -42 17 -80
0z"/>
<path d="M6019 4765 c-15 -8 -33 -29 -42 -47 -34 -74 -109 -259 -106 -262 2
-2 73 -11 156 -20 118 -13 158 -14 175 -5 82 41 77 157 -7 189 -20 7 -24 16
-23 48 0 49 -15 78 -52 97 -36 19 -67 19 -101 0z"/>
<path d="M3897 4688 c-79 -104 -61 -147 61 -144 78 1 92 10 92 55 0 22 -83
151 -98 151 -4 0 -28 -28 -55 -62z"/>
<path d="M11531 4737 c-52 -26 -59 -51 -68 -220 -4 -88 -6 -160 -3 -162 3 -2
74 13 158 34 119 29 158 43 178 62 68 69 16 179 -85 179 -21 0 -27 5 -28 22
-6 74 -86 119 -152 85z"/>
<path d="M6857 4616 l-77 -114 -92 -23 c-69 -17 -100 -30 -120 -50 -60 -60
-12 -159 77 -159 19 0 25 -5 25 -21 0 -35 53 -79 95 -79 27 0 44 8 66 29 26
27 29 36 29 94 0 64 1 66 29 72 16 3 37 15 46 25 17 19 18 19 43 0 59 -47 152
-2 152 73 0 29 -16 55 -92 151 -50 64 -94 116 -98 116 -3 0 -41 -51 -83 -114z"/>
<path d="M2544 4696 l-28 -23 -33 20 c-45 26 -99 18 -134 -22 l-27 -29 -136
22 c-75 12 -138 21 -139 19 -2 -1 5 -67 16 -145 17 -126 22 -146 45 -170 15
-16 36 -28 50 -28 24 0 24 -1 9 -18 -10 -10 -17 -25 -17 -32 0 -7 -7 -21 -16
-31 -20 -22 -12 -64 13 -73 15 -6 117 10 136 21 10 6 -43 103 -64 116 -15 9
-13 14 17 42 21 20 34 42 34 57 0 21 6 26 36 31 20 3 44 13 54 22 16 15 23 9
101 -79 46 -52 87 -92 91 -88 22 22 170 271 175 293 6 31 -18 82 -49 103 -35
24 -102 20 -134 -8z"/>
<path d="M997 4642 c-10 -10 -17 -24 -17 -31 0 -7 -13 -17 -29 -22 -59 -21
-57 -99 3 -118 44 -14 157 -33 163 -28 2 3 1 42 -3 86 -5 58 -12 89 -26 106
-23 30 -68 33 -91 7z"/>
<path d="M1722 4598 c-7 -7 -12 -20 -12 -30 0 -11 -10 -32 -22 -49 -21 -28
-21 -32 -7 -57 19 -35 34 -37 123 -17 l75 17 -31 56 c-17 32 -38 65 -46 75
-17 20 -62 23 -80 5z"/>
<path d="M3340 4561 c0 -14 67 -282 75 -304 16 -39 102 -60 146 -37 25 14 49
62 49 100 0 26 3 30 28 30 33 0 77 42 87 82 10 38 -20 93 -58 111 -38 17 -327
33 -327 18z"/>
<path d="M77 4539 c-11 -6 -25 -26 -33 -45 -8 -19 -21 -34 -29 -34 -13 0 -15
-16 -13 -101 l3 -102 103 -35 c56 -19 104 -33 106 -31 2 2 6 73 8 157 l3 154
-28 24 c-30 26 -87 32 -120 13z"/>
<path d="M10505 4465 c-55 -42 -110 -87 -122 -101 -33 -37 -30 -85 7 -127 17
-19 30 -41 30 -49 0 -26 39 -66 70 -73 23 -5 57 6 157 51 71 31 130 58 132 60
2 2 -17 27 -42 56 -32 39 -55 81 -82 156 -20 56 -40 102 -44 102 -3 0 -51 -34
-106 -75z"/>
<path d="M4629 4480 l-30 -29 7 -128 c4 -71 9 -133 13 -139 8 -16 240 70 264
97 9 12 17 38 17 59 0 49 -47 94 -92 88 -19 -3 -28 0 -28 10 0 7 -13 27 -29
43 -40 39 -82 39 -122 -1z"/>
<path d="M8892 4375 c-22 -18 -32 -36 -32 -55 0 -23 -5 -29 -30 -33 -36 -8
-67 -37 -76 -72 -9 -35 13 -83 45 -99 26 -13 269 -42 277 -33 3 3 -6 64 -20
137 -26 146 -38 167 -97 176 -28 5 -41 1 -67 -21z"/>
<path d="M9614 4368 c3 -18 6 -70 7 -116 l2 -83 -31 -19 c-17 -11 -34 -31 -38
-46 -6 -22 3 -275 10 -281 1 -2 25 6 54 17 32 12 63 17 81 14 27 -6 29 -9 24
-38 -8 -48 36 -96 87 -96 21 0 47 8 59 18 15 12 121 247 121 267 0 1 -30 5
-66 8 -37 4 -69 8 -71 10 -2 3 -1 22 3 44 5 33 10 40 24 36 10 -3 36 1 57 8
61 22 103 18 110 -9 17 -69 121 -83 154 -21 9 18 14 267 6 276 -2 1 -52 -13
-112 -32 -100 -31 -111 -33 -127 -18 -14 12 -316 93 -350 93 -6 0 -8 -14 -4
-32z m296 -392 c0 -2 -11 -6 -25 -8 -14 -3 -25 -1 -25 3 0 5 11 9 25 9 14 0
25 -2 25 -4z m11 -43 c-12 -20 -14 -14 -5 12 4 9 9 14 11 11 3 -2 0 -13 -6
-23z m-51 13 c0 -2 -7 -7 -16 -10 -8 -3 -12 -2 -9 4 6 10 25 14 25 6z m0 -30
c0 -2 -8 -10 -17 -17 -16 -13 -17 -12 -4 4 13 16 21 21 21 13z m31 -33 c-12
-20 -14 -14 -5 12 4 9 9 14 11 11 3 -2 0 -13 -6 -23z m-71 3 c0 -2 -8 -10 -17
-17 -16 -13 -17 -12 -4 4 13 16 21 21 21 13z m51 -53 c-12 -20 -14 -14 -5 12
4 9 9 14 11 11 3 -2 0 -13 -6 -23z m-98 -63 c11 -13 10 -13 -5 -1 -10 7 -17
25 -17 40 l2 26 4 -25 c3 -14 10 -32 16 -40z m77 11 c-6 -12 -15 -21 -21 -21
-6 0 -3 7 5 16 9 8 16 20 16 26 0 6 3 9 6 6 3 -4 1 -16 -6 -27z"/>
<path d="M8466 4360 c-23 -21 -37 -27 -41 -19 -4 6 -22 17 -40 25 -42 17 -96
3 -125 -33 -27 -34 -27 -101 0 -136 11 -14 20 -28 20 -32 0 -3 -16 -27 -35
-52 -39 -51 -44 -87 -20 -133 29 -56 103 -70 158 -29 21 15 32 19 35 11 5 -17
56 -42 86 -42 87 0 139 105 85 173 l-20 27 40 68 c45 74 49 98 26 142 -33 64
-114 78 -169 30z"/>
<path d="M2634 4318 c-4 -6 -9 -32 -11 -58 -5 -72 12 -81 88 -45 l59 29 -42
43 c-42 42 -79 55 -94 31z"/>
<path d="M7 4223 c-4 -3 -7 -71 -7 -149 l0 -143 33 6 c136 27 182 40 179 51
-1 7 -27 59 -58 116 -55 102 -79 126 -123 126 -10 0 -21 -3 -24 -7z"/>
<path d="M6148 4118 c-89 -127 -95 -153 -49 -199 36 -35 86 -39 124 -9 21 17
27 18 37 5 19 -22 65 -28 98 -11 34 17 57 65 48 99 -6 25 -161 227 -174 227
-4 -1 -42 -51 -84 -112z"/>
<path d="M12569 4174 c-86 -43 -109 -59 -117 -82 -19 -56 35 -124 87 -107 11
3 25 -6 40 -25 20 -27 28 -31 63 -28 31 2 46 10 61 30 20 27 20 28 2 135 -10
59 -21 113 -24 119 -4 8 -42 -6 -112 -42z"/>
<path d="M3816 4128 c-31 -136 -31 -146 -6 -173 30 -32 74 -33 103 -1 13 14
33 24 50 24 30 -1 63 24 72 52 12 38 -13 66 -104 118 -50 29 -93 52 -95 52 -2
0 -11 -33 -20 -72z m41 -20 c-3 -8 -6 -5 -6 6 -1 11 2 17 5 13 3 -3 4 -12 1
-19z m135 -80 c-8 -8 -9 -4 -5 13 4 13 8 18 11 10 2 -7 -1 -18 -6 -23z"/>
<path d="M1813 4153 c-17 -6 -106 -170 -99 -182 3 -4 46 -16 95 -26 95 -18
120 -14 141 25 14 26 3 68 -21 81 -12 6 -19 21 -19 39 0 51 -50 83 -97 63z"/>
<path d="M11455 4091 c-38 -16 -60 -50 -59 -92 1 -32 -5 -46 -32 -73 -44 -44
-46 -86 -5 -127 37 -36 52 -36 206 0 87 21 119 32 117 42 -2 8 -31 63 -65 122
-72 127 -103 152 -162 128z"/>
<path d="M12253 4078 c-11 -13 -37 -59 -56 -103 l-36 -80 27 -7 c15 -4 66 -11
113 -14 83 -6 87 -6 103 17 23 33 20 66 -9 95 -14 14 -25 34 -25 45 0 27 -44
69 -73 69 -13 0 -33 -10 -44 -22z"/>
<path d="M393 4055 c-12 -8 -27 -31 -33 -50 -10 -30 -16 -35 -42 -35 -38 0
-88 -48 -88 -85 0 -39 25 -81 57 -93 26 -10 204 -56 247 -64 17 -3 18 5 17
112 -2 137 -12 189 -42 213 -26 21 -87 22 -116 2z"/>
<path d="M11831 4034 c-25 -24 -39 -55 -76 -173 -25 -79 -55 -156 -66 -173
-16 -21 -20 -40 -17 -74 2 -35 0 -45 -14 -50 -32 -10 -68 -63 -68 -101 0 -27
8 -43 34 -69 39 -39 46 -40 176 -15 92 18 95 18 119 0 13 -10 39 -19 57 -19
29 0 49 14 132 91 53 50 98 93 99 97 1 4 -45 34 -103 67 l-106 60 36 8 c84 20
116 128 57 188 -17 17 -40 29 -55 29 -24 0 -26 3 -26 45 0 63 -38 105 -101
112 -41 5 -50 2 -78 -23z m69 -369 c-7 -8 -16 -15 -20 -15 -4 0 -10 7 -14 15
-4 11 2 15 21 15 21 0 24 -2 13 -15z"/>
<path d="M4095 3910 c-77 -38 -144 -71 -150 -73 -12 -4 199 -237 237 -260 45
-29 95 -22 134 17 28 28 34 41 34 78 0 24 -7 53 -15 64 -19 25 -19 32 3 38 26
9 52 59 52 101 0 29 -8 45 -34 71 -53 53 -90 47 -261 -36z"/>
<path d="M1080 3865 c-7 -8 -16 -12 -21 -9 -18 11 -49 -17 -49 -45 0 -23 9
-34 51 -60 29 -18 56 -28 61 -23 4 4 14 34 20 66 12 53 11 59 -7 72 -24 18
-39 18 -55 -1z"/>
<path d="M4721 3800 c-40 -16 -75 -31 -78 -34 -3 -2 20 -36 51 -75 46 -58 62
-71 85 -71 35 0 64 30 59 63 -1 13 3 32 11 41 21 25 16 67 -9 88 -28 23 -31
23 -119 -12z"/>
<path d="M10710 3790 c-27 -27 -25 -60 11 -162 l32 -88 31 22 c121 85 146 109
146 143 0 42 -41 79 -79 72 -16 -3 -35 2 -50 14 -31 25 -66 24 -91 -1z"/>
<path d="M6110 3760 c-153 -21 -164 -24 -190 -57 -53 -67 -1 -173 85 -173 22
0 25 -5 25 -34 0 -71 77 -120 143 -92 20 8 42 25 51 38 8 12 24 79 35 148 12
69 23 140 26 158 7 39 11 38 -175 12z"/>
<path d="M8474 3720 c-28 -11 -54 -48 -54 -77 0 -16 -6 -23 -19 -23 -33 0 -51
-11 -67 -42 -20 -38 -10 -84 23 -105 21 -14 178 -41 249 -43 l21 0 -22 126
c-23 133 -36 158 -85 168 -14 3 -35 1 -46 -4z"/>
<path d="M2685 3549 c-170 -98 -195 -122 -195 -185 0 -39 5 -51 34 -80 28 -28
42 -34 76 -34 23 0 50 5 61 10 15 9 19 7 19 -6 0 -9 15 -31 34 -50 29 -29 41
-34 81 -34 40 0 52 5 81 34 25 25 34 43 34 68 0 36 -68 338 -79 350 -4 5 -70
-28 -146 -73z"/>
<path d="M7956 3562 c-23 -17 -47 -27 -58 -24 -10 2 -25 -1 -33 -8 -26 -21
-17 -54 26 -95 39 -39 41 -39 55 -21 8 11 14 24 14 29 0 5 6 7 13 4 6 -2 11
-12 9 -21 -2 -10 6 -38 17 -62 16 -34 27 -44 45 -44 28 0 33 6 75 84 18 32 39
68 46 80 22 30 18 59 -9 86 -19 17 -31 21 -53 16 -38 -10 -54 -10 -83 -2 -19
5 -35 0 -64 -22z"/>
<path d="M6985 3535 c-14 -13 -25 -35 -25 -49 0 -39 97 -239 112 -230 7 4 50
41 96 82 75 68 82 78 82 111 0 55 -35 86 -91 78 -33 -4 -48 -1 -67 14 -34 26
-78 24 -107 -6z"/>
<path d="M6322 3408 l-142 -82 117 -113 c130 -124 163 -142 219 -118 62 26 85
89 55 149 -20 38 -20 40 -2 52 51 36 51 125 0 168 -52 44 -85 36 -247 -56z"/>
<path d="M3686 3374 c-9 -8 -16 -27 -16 -41 0 -27 20 -155 25 -161 2 -2 39 15
84 37 61 31 82 47 87 66 9 36 -19 75 -54 75 -16 0 -32 8 -40 20 -15 24 -64 27
-86 4z"/>
<path d="M12747 3323 c-38 -27 -39 -27 -17 -43 l21 -16 -25 -13 c-14 -8 -33
-30 -42 -49 -22 -47 -6 -106 37 -130 26 -15 28 -21 22 -47 -11 -46 -7 -75 14
-103 41 -55 43 -46 43 197 0 127 -3 231 -7 230 -5 0 -25 -12 -46 -26z"/>
<path d="M3954 3210 c-35 -14 -64 -59 -64 -100 0 -22 12 -58 30 -91 16 -30 30
-57 30 -61 0 -5 -14 -8 -31 -8 -36 0 -89 -47 -89 -79 0 -12 -5 -21 -11 -21 -6
0 -28 -17 -48 -39 l-36 -38 -150 11 -150 11 -6 38 c-3 21 -13 45 -21 53 -8 8
-64 26 -124 40 -60 14 -118 27 -128 31 -18 5 -19 0 -12 -123 7 -137 16 -166
62 -186 19 -9 33 -9 55 -1 27 10 31 9 38 -10 5 -12 21 -33 35 -46 17 -16 26
-35 26 -55 0 -19 9 -40 25 -56 13 -14 38 -40 56 -57 25 -27 39 -33 73 -33 64
0 99 28 126 99 12 33 26 61 29 61 4 0 15 -6 24 -12 15 -12 13 -20 -18 -90 -18
-43 -33 -78 -32 -78 1 0 56 -7 122 -15 159 -20 162 -20 197 15 26 27 30 36 25
70 -3 27 1 51 14 77 24 49 12 103 -31 134 -28 21 -28 23 -12 48 9 14 17 27 18
29 0 1 31 -11 68 -28 38 -16 74 -30 81 -30 8 0 16 33 24 103 l11 102 67 65
c73 71 96 116 82 163 -12 42 -36 65 -80 78 -32 10 -44 9 -79 -9 l-41 -20 -15
22 c-26 41 -89 57 -140 36z"/>
<path d="M290 3010 c-11 -11 -20 -31 -20 -45 0 -24 31 -65 49 -65 5 0 11 -12
13 -27 2 -19 12 -32 32 -42 44 -20 75 8 103 95 35 108 37 104 -67 104 -77 0
-93 -3 -110 -20z"/>
<path d="M8260 2949 c-153 -116 -165 -130 -165 -185 0 -39 5 -50 33 -75 34
-31 94 -39 131 -19 14 7 23 3 40 -21 42 -56 115 -62 164 -13 45 45 43 65 -19
236 -31 87 -62 158 -68 157 -6 0 -58 -36 -116 -80z"/>
<path d="M6489 2901 c-34 -34 -38 -77 -13 -121 16 -26 16 -29 -5 -51 -32 -35
-29 -93 8 -130 48 -48 78 -41 219 49 67 42 122 80 122 83 0 6 -152 138 -204
177 -43 32 -90 29 -127 -7z"/>
<path d="M2027 2783 c6 -107 17 -137 58 -147 31 -8 75 16 82 44 3 11 18 22 34
25 32 7 59 39 59 70 0 44 -27 63 -119 84 -128 30 -119 37 -114 -76z"/>
<path d="M11612 2868 c-7 -7 -12 -18 -12 -25 0 -7 -9 -17 -20 -23 -11 -6 -20
-21 -20 -33 0 -42 15 -51 90 -55 67 -4 72 -3 67 14 -3 11 -11 39 -17 64 -16
62 -57 89 -88 58z"/>
<path d="M9693 2815 c-32 -24 -73 -58 -92 -73 l-34 -29 91 -62 c59 -39 101
-61 120 -61 56 0 91 70 59 115 -12 15 -12 22 0 45 16 34 5 70 -29 94 -34 24
-51 20 -115 -29z"/>
<path d="M2980 2768 c0 -59 12 -98 32 -109 25 -13 55 -3 63 22 4 10 13 19 20
19 19 0 37 34 29 55 -9 22 -33 33 -92 41 l-52 7 0 -35z"/>
<path d="M12256 2758 c-32 -236 -29 -265 26 -294 39 -20 81 -10 111 26 19 22
30 27 51 23 19 -4 34 1 52 18 57 53 66 116 22 155 -11 11 -24 29 -29 42 -8 19
-12 21 -30 12 -16 -9 -34 -5 -95 20 -42 17 -82 34 -89 36 -10 4 -15 -7 -19
-38z"/>
<path d="M5503 2702 c-9 -16 -26 -33 -37 -38 -23 -10 -33 -59 -17 -83 10 -15
76 -30 139 -31 37 0 43 3 38 18 -3 9 -10 44 -15 77 -7 35 -18 65 -28 73 -29
21 -63 14 -80 -16z"/>
<path d="M5859 2661 c-23 -23 -29 -38 -29 -71 0 -33 6 -48 29 -71 16 -16 37
-29 45 -29 12 0 16 -11 16 -46 0 -37 5 -51 29 -75 38 -37 97 -40 135 -6 24 21
142 285 132 294 -6 6 -239 33 -289 33 -29 0 -46 -7 -68 -29z"/>
<path d="M723 2570 c-38 -23 -53 -48 -53 -89 0 -30 18 -81 29 -81 3 0 14 -7
24 -15 17 -12 18 -18 7 -49 -16 -49 2 -101 44 -127 41 -25 76 -24 118 5 l34
23 32 -28 c78 -70 185 -5 168 101 -5 31 -3 40 8 40 23 0 66 59 66 91 0 44 -25
84 -60 99 -25 11 -43 10 -98 -2 -67 -14 -68 -14 -166 19 -55 18 -105 33 -110
33 -6 0 -25 -9 -43 -20z"/>
<path d="M7530 2543 c-31 -11 -40 -37 -40 -111 0 -72 1 -73 23 -66 12 4 44 13
72 20 47 13 75 34 75 59 0 16 -30 55 -42 55 -6 0 -21 11 -34 25 -24 26 -28 27
-54 18z"/>
<path d="M9135 2315 c-14 -13 -25 -35 -25 -49 0 -23 103 -220 120 -231 4 -2
46 35 94 84 69 71 86 94 86 118 0 63 -65 107 -117 80 -23 -13 -28 -12 -44 4
-28 28 -84 25 -114 -6z"/>
<path d="M12484 2272 c-39 -15 -77 -32 -85 -38 -10 -8 -33 -9 -73 -3 -94 13
-113 -7 -78 -83 17 -38 49 -57 73 -43 6 4 22 31 35 59 21 48 23 49 23 20 1
-34 27 -64 55 -64 10 0 31 -13 46 -30 32 -35 58 -38 91 -11 21 17 22 25 20
111 -1 52 -4 97 -7 102 -8 12 -22 9 -100 -20z m36 -37 c-7 -9 -15 -13 -19 -10
-3 3 1 10 9 15 21 14 24 12 10 -5z m-40 -14 c-8 -5 -26 -11 -40 -15 -21 -5
-20 -3 5 9 32 15 60 20 35 6z m51 -42 c-12 -19 -21 -42 -21 -52 0 -27 33 -17
41 13 4 14 7 18 8 8 2 -29 -10 -48 -30 -48 -31 0 -34 28 -8 82 13 27 25 45 27
40 1 -5 -6 -25 -17 -43z m-48 6 c-10 -13 -22 -25 -27 -25 -5 0 1 11 14 25 30
32 36 32 13 0z"/>
<path d="M2765 2268 c-2 -7 -16 -73 -29 -146 -28 -145 -26 -165 20 -201 49
-38 131 -16 149 40 5 16 12 19 40 13 38 -7 89 15 106 47 17 32 13 88 -7 110
-15 17 -253 149 -268 149 -4 0 -9 -6 -11 -12z"/>
<path d="M7073 2027 c5 -30 2 -34 -61 -75 -37 -24 -77 -51 -90 -60 l-23 -18
80 -62 c86 -67 117 -76 151 -42 21 21 27 69 10 86 -14 14 12 65 51 101 53 51
29 87 -64 96 l-59 6 5 -32z"/>
<path d="M2045 2038 c-50 -28 -47 -69 13 -162 26 -41 50 -74 54 -73 19 6 128
151 128 171 0 44 -62 80 -99 57 -8 -5 -24 -3 -40 5 -31 16 -31 16 -56 2z"/>
<path d="M12732 2036 c-46 -12 -82 -46 -82 -76 0 -28 39 -70 66 -70 15 0 24
-6 24 -15 0 -17 35 -55 50 -55 6 0 10 45 10 115 0 126 4 121 -68 101z"/>
<path d="M1643 1988 c-38 -10 -73 -55 -73 -95 0 -24 85 -299 97 -312 2 -3 52
28 110 68 102 70 109 73 138 62 44 -16 69 -14 88 7 20 22 22 73 5 90 -7 7 -11
27 -10 45 4 41 -13 56 -76 70 -59 13 -109 12 -127 -3 -10 -8 -15 -7 -19 8 -15
46 -78 75 -133 60z"/>
<path d="M605 1940 c-66 -27 -119 -53 -117 -59 5 -23 165 -217 189 -230 21
-10 34 -11 63 -2 59 18 87 80 60 132 -9 16 -6 24 20 45 25 21 30 33 30 69 0
36 -5 48 -31 69 -42 36 -73 32 -214 -24z"/>
<path d="M10658 1973 c-14 -9 -31 -27 -37 -40 -12 -26 -56 -341 -49 -348 8 -8
322 46 349 61 15 7 34 30 44 51 16 33 16 41 4 77 -15 41 -87 104 -121 105 -10
1 -18 8 -18 16 0 75 -102 121 -172 78z"/>
<path d="M4868 1895 c-43 -71 -46 -94 -20 -118 20 -19 57 -22 67 -7 3 5 19 7
36 3 34 -6 69 18 69 48 0 16 -91 129 -109 136 -3 2 -23 -26 -43 -62z"/>
<path d="M4036 1765 c-42 -22 -55 -44 -56 -90 0 -37 9 -52 91 -150 50 -61 94
-114 99 -119 10 -11 169 225 176 263 7 33 -17 85 -45 101 -31 16 -86 12 -113
-10 -25 -19 -25 -19 -64 0 -46 24 -51 24 -88 5z"/>
<path d="M2085 1718 c-52 -155 -71 -268 -55 -323 2 -5 0 -17 -4 -27 -15 -33
-2 -72 27 -86 27 -13 33 -11 108 34 l80 49 -41 39 c-48 45 -43 61 22 62 32 0
46 6 64 28 46 53 27 90 -83 164 -116 77 -112 75 -118 60z"/>
<path d="M5678 1604 c-31 -16 -48 -43 -48 -73 0 -16 -6 -21 -29 -21 -85 0
-120 -118 -49 -164 19 -13 277 -70 284 -63 1 1 -4 62 -12 136 -15 143 -27 175
-70 191 -33 13 -44 12 -76 -6z"/>
<path d="M1380 1515 c-19 -49 -23 -104 -10 -120 13 -16 55 -20 64 -6 3 4 19
11 35 14 33 7 48 36 32 64 -5 10 -32 31 -60 46 l-51 28 -10 -26z"/>
<path d="M6392 1318 c-55 -78 -72 -110 -72 -135 0 -66 74 -105 128 -68 19 14
25 14 52 0 21 -11 42 -14 61 -10 38 9 72 59 63 95 -5 21 -136 204 -154 215 -4
2 -39 -42 -78 -97z"/>
<path d="M12428 1391 c-25 -22 -32 -37 -32 -64 0 -39 31 -81 66 -93 14 -4 18
-12 14 -27 -7 -27 17 -83 42 -96 33 -18 79 -13 106 12 15 13 46 73 75 144 l50
122 -32 5 c-33 6 -230 26 -247 26 -5 0 -24 -13 -42 -29z m75 -18 c-7 -2 -19
-2 -25 0 -7 3 -2 5 12 5 14 0 19 -2 13 -5z m120 -10 c-7 -2 -21 -2 -30 0 -10
3 -4 5 12 5 17 0 24 -2 18 -5z m-186 -45 c-3 -8 -6 -5 -6 6 -1 11 2 17 5 13 3
-3 4 -12 1 -19z m80 -130 c-3 -8 -6 -5 -6 6 -1 11 2 17 5 13 3 -3 4 -12 1 -19z
m103 -22 c0 -2 -8 -10 -17 -17 -16 -13 -17 -12 -4 4 13 16 21 21 21 13z"/>
<path d="M4856 1338 c-9 -12 -16 -28 -16 -36 0 -10 -20 -12 -102 -6 -56 4
-112 13 -126 19 -13 7 -32 10 -43 8 -23 -6 -49 -40 -49 -65 0 -9 -6 -21 -14
-25 -26 -16 -37 -50 -25 -77 15 -32 35 -39 111 -34 l61 3 11 -34 c15 -41 40
-61 81 -61 42 0 73 24 81 64 4 24 14 38 32 45 15 6 35 25 44 41 11 20 27 31
52 36 20 3 39 10 42 15 6 10 -50 97 -74 117 -24 18 -49 15 -66 -10z"/>
<path d="M727 1325 c-37 -36 -32 -61 27 -151 31 -47 61 -84 65 -82 5 2 36 36
70 76 68 83 75 109 35 149 -20 19 -31 24 -52 18 -32 -8 -45 -7 -93 1 -26 4
-40 1 -52 -11z"/>
<path d="M1520 1295 c-30 -19 -59 -36 -65 -38 -20 -8 101 -117 130 -117 31 0
46 27 51 92 4 60 3 68 -18 82 -30 22 -35 21 -98 -19z"/>
<path d="M9522 1265 c-18 -23 -23 -24 -46 -13 -35 15 -93 -10 -102 -46 -14
-59 -3 -77 101 -158 55 -42 103 -74 106 -70 4 4 26 58 49 121 36 101 40 117
29 143 -14 35 -37 48 -83 48 -25 0 -40 -7 -54 -25z"/>
<path d="M1063 1171 c-50 -9 -94 -19 -98 -22 -10 -10 92 -206 110 -213 53 -20
105 12 105 63 0 19 10 40 30 59 44 44 40 91 -11 117 -15 8 -32 14 -36 14 -4
-1 -49 -9 -100 -18z"/>
<path d="M3165 1070 c-66 -66 -77 -82 -65 -91 8 -5 55 -30 104 -55 81 -41 91
-44 118 -33 50 20 64 78 29 116 -13 13 -16 25 -10 34 29 46 -7 109 -64 109
-27 0 -45 -12 -112 -80z"/>
<path d="M1570 1093 c-80 -24 -149 -48 -154 -53 -11 -11 170 -277 203 -298 36
-24 94 -21 131 7 l32 23 27 -26 c15 -14 39 -26 52 -26 40 0 55 27 57 98 1 56
-1 64 -25 79 -24 16 -27 16 -64 -5 l-38 -22 -11 21 c-7 11 -10 22 -8 23 2 1
15 8 30 15 29 15 58 65 58 101 0 56 -58 111 -117 109 -15 0 -93 -21 -173 -46z"/>
<path d="M3693 1105 c-37 -16 -62 -50 -65 -88 -2 -26 -4 -27 -68 -27 -57 0
-70 -3 -88 -23 -30 -32 -29 -81 3 -112 13 -14 29 -25 35 -25 5 0 10 -15 10
-33 0 -23 8 -41 24 -56 24 -23 26 -23 138 -12 63 6 146 11 186 11 78 0 82 3
62 56 -6 15 -9 29 -6 31 2 2 45 -13 95 -33 53 -21 96 -33 101 -28 4 5 11 59
15 119 6 103 5 111 -15 133 -27 29 -82 30 -110 2 -11 -11 -20 -24 -20 -29 0
-5 -18 -11 -39 -15 -24 -3 -46 -15 -54 -27 -14 -20 -16 -18 -32 33 -27 82 -41
104 -79 122 -41 19 -51 19 -93 1z"/>
<path d="M2452 1084 c-40 -28 -43 -54 -23 -184 10 -66 20 -122 22 -124 8 -8
229 101 244 119 41 55 -4 135 -76 135 -22 0 -39 5 -39 10 0 6 -11 22 -25 35
-28 29 -70 32 -103 9z"/>
<path d="M6972 1013 c-7 -3 -19 -18 -28 -35 -19 -37 -11 -81 20 -106 19 -14
21 -22 14 -42 -20 -55 19 -110 80 -110 43 0 54 10 142 125 29 39 57 75 61 81
6 7 -28 24 -104 53 -104 38 -153 47 -185 34z"/>
<path d="M18 982 c-16 -3 -18 -20 -18 -178 l0 -174 104 0 104 0 16 -47 c9 -25
15 -48 13 -49 -1 -2 -22 2 -45 8 -52 13 -87 5 -118 -29 -43 -46 -23 -139 35
-158 15 -5 18 -13 14 -49 -6 -52 7 -80 49 -102 37 -19 83 -12 115 17 26 25 60
19 47 -9 -49 -113 51 -221 156 -167 17 9 61 61 105 125 42 61 84 116 92 123 9
7 31 27 51 45 31 30 34 36 29 74 -4 34 -17 53 -70 107 -55 56 -65 73 -70 109
-5 44 -26 75 -60 94 -10 5 -97 9 -196 8 l-177 -1 -33 105 c-18 58 -41 112 -51
121 -21 19 -68 33 -92 27z m342 -672 c-6 -11 -13 -20 -16 -20 -2 0 0 9 6 20 6
11 13 20 16 20 2 0 0 -9 -6 -20z m259 -4 c15 -8 20 -16 12 -20 -6 -4 -11 -3
-11 2 0 5 -10 14 -22 20 -13 6 -18 11 -13 11 6 0 21 -6 34 -13z m-202 -32 c-3
-3 -12 -4 -19 -1 -8 3 -5 6 6 6 11 1 17 -2 13 -5z m183 -34 c-12 -16 -24 -30
-26 -30 -3 0 4 14 16 30 12 17 24 30 26 30 3 0 -4 -13 -16 -30z m-140 0 c-8
-5 -19 -10 -25 -10 -5 0 -3 5 5 10 8 5 20 10 25 10 6 0 3 -5 -5 -10z m-77 -44
c-10 -13 -20 -22 -22 -20 -4 4 29 44 36 44 2 0 -4 -11 -14 -24z m167 -30 c0
-2 -8 -10 -17 -17 -16 -13 -17 -12 -4 4 13 16 21 21 21 13z m-176 -52 c3 -8 2
-12 -4 -9 -6 3 -10 10 -10 16 0 14 7 11 14 -7z m112 -29 c-11 -8 -34 -14 -50
-14 -29 1 -29 2 7 9 20 4 40 10 44 13 3 4 9 7 12 7 3 0 -3 -7 -13 -15z"/>
<path d="M11034 956 c-18 -8 -36 -26 -44 -45 -10 -25 -18 -31 -41 -31 -28 0
-52 -18 -74 -53 -9 -14 -22 -6 -94 59 -47 41 -88 71 -91 67 -11 -12 -121 -254
-131 -287 -19 -63 37 -131 108 -131 38 0 49 5 74 33 28 32 30 32 59 17 37 -19
63 -19 100 0 33 17 60 61 60 98 l0 24 93 -27 92 -28 3 131 c2 125 2 132 -20
153 -31 30 -57 35 -94 20z m-214 -154 c83 -77 100 -98 100 -123 0 -55 -68 -89
-113 -56 -10 6 -30 52 -46 100 -15 48 -31 90 -35 94 -4 4 -4 -28 1 -72 4 -44
7 -93 7 -109 -1 -35 -35 -66 -71 -66 -28 0 -73 41 -73 66 0 29 62 154 73 147
6 -4 7 -1 2 6 -8 14 34 113 47 109 4 -2 53 -45 108 -96z"/>
<path d="M10691 854 c-6 -15 -9 -29 -6 -32 3 -3 5 -1 5 4 0 6 6 19 14 29 13
18 19 14 105 -64 72 -65 91 -89 91 -110 0 -15 -5 -32 -12 -39 -20 -20 -65 -14
-82 10 -9 12 -16 17 -16 11 0 -40 74 -57 103 -25 35 39 23 65 -77 156 -51 47
-98 86 -103 86 -5 0 -15 -12 -22 -26z"/>
<path d="M10702 780 c0 -14 2 -19 5 -12 2 6 2 18 0 25 -3 6 -5 1 -5 -13z"/>
<path d="M10752 790 c0 -8 6 -31 13 -50 7 -19 13 -28 13 -20 0 8 -6 31 -13 50
-7 19 -13 28 -13 20z"/>
<path d="M10632 725 c-30 -62 -27 -71 4 -12 14 27 24 51 22 53 -3 2 -14 -17
-26 -41z"/>
<path d="M10713 710 c0 -25 2 -35 4 -22 2 12 2 32 0 45 -2 12 -4 2 -4 -23z"/>
<path d="M10601 644 c-1 -11 6 -29 15 -40 8 -10 12 -13 9 -6 -4 8 -11 26 -15
40 -7 22 -8 23 -9 6z"/>
<path d="M10708 610 c-2 -6 -19 -15 -38 -20 -29 -7 -31 -8 -9 -9 27 -1 68 23
58 34 -4 3 -9 1 -11 -5z"/>
<path d="M8756 938 c-12 -58 -36 -218 -36 -243 0 -37 50 -85 88 -85 33 0 78
31 87 60 5 15 12 19 31 14 50 -13 114 38 114 90 0 48 -25 69 -148 128 -68 32
-126 58 -128 58 -2 0 -6 -10 -8 -22z"/>
<path d="M11592 809 c-145 -123 -163 -150 -142 -214 23 -70 95 -100 160 -67
39 19 40 19 46 0 9 -29 63 -58 108 -58 54 0 106 52 106 106 0 38 -126 344
-141 344 -4 0 -66 -50 -137 -111z"/>
<path d="M2892 873 c-24 -2 -42 -7 -40 -12 2 -4 14 -38 28 -75 30 -82 55 -104
97 -84 16 8 29 23 31 36 2 12 14 33 28 47 29 29 30 49 4 75 -20 20 -42 22
-148 13z"/>
<path d="M2625 823 c-35 -9 -67 -36 -80 -68 -14 -33 -9 -375 6 -375 14 0 314
97 335 108 12 6 29 28 39 48 23 48 13 99 -27 136 -24 23 -39 28 -78 28 -47 0
-48 1 -54 34 -7 35 -55 86 -81 86 -7 0 -19 2 -27 4 -7 2 -22 1 -33 -1z"/>
<path d="M9871 383 c-17 -82 -31 -160 -31 -175 0 -16 12 -41 29 -60 25 -28 36
-33 75 -33 36 0 51 6 75 29 17 17 31 35 31 42 0 10 13 12 48 8 36 -4 54 -1 79
15 53 33 61 118 16 162 -20 19 -268 159 -281 159 -5 0 -23 -66 -41 -147z m119
63 c0 -3 -13 1 -30 7 -16 6 -30 15 -30 19 0 5 14 2 30 -7 17 -9 30 -17 30 -19z
m-63 -28 c-3 -7 -5 -2 -5 12 0 14 2 19 5 13 2 -7 2 -19 0 -25z m173 -33 c0 -3
-18 4 -40 15 -22 11 -40 23 -40 25 0 3 18 -4 40 -15 22 -11 40 -23 40 -25z
m-186 -29 c-3 -21 -8 -35 -11 -32 -2 2 -1 20 3 40 3 21 8 35 11 32 2 -2 1 -20
-3 -40z m87 -73 l23 -73 -21 -27 c-14 -20 -29 -28 -54 -29 l-34 -2 33 5 c20 3
38 14 49 30 16 24 15 29 -11 106 -39 115 -39 115 -23 87 8 -14 25 -58 38 -97z
m-2 87 c11 -24 11 -24 -3 -6 -9 11 -16 24 -16 30 0 12 5 7 19 -24z m179 -39
c3 -8 -3 -6 -15 5 -11 11 -28 25 -39 32 -10 7 -4 5 15 -5 19 -10 36 -24 39
-32z m-148 -11 c6 -11 8 -20 6 -20 -3 0 -10 9 -16 20 -6 11 -8 20 -6 20 3 0
10 -9 16 -20z m-136 -54 c-3 -21 -8 -35 -11 -32 -2 2 -1 20 3 40 3 21 8 35 11
32 2 -2 1 -20 -3 -40z m293 22 c-3 -8 -6 -5 -6 6 -1 11 2 17 5 13 3 -3 4 -12
1 -19z m-57 -45 c28 4 39 2 29 -4 -38 -24 -90 -6 -114 41 -4 8 4 2 17 -14 22
-26 29 -29 68 -23z m-226 -73 c10 -13 9 -13 -6 -1 -10 7 -18 21 -17 30 0 13 1
14 6 1 3 -8 11 -22 17 -30z"/>
<path d="M6974 427 c-26 -14 -264 -220 -264 -227 0 -3 67 -47 148 -98 157 -97
185 -106 241 -77 37 19 65 77 57 118 -4 17 -18 43 -32 58 l-25 26 20 34 c25
40 27 79 6 119 -27 52 -102 75 -151 47z"/>
<path d="M2133 343 c-99 -105 -99 -97 12 -149 103 -48 133 -50 160 -11 20 29
19 60 -4 88 -14 18 -17 29 -10 47 10 27 -10 76 -36 86 -39 15 -60 4 -122 -61z"/>
<path d="M11755 385 c-60 -7 -120 -15 -132 -16 -21 -4 -20 -9 36 -143 63 -150
90 -186 142 -186 67 0 115 52 107 116 -3 25 2 32 33 47 64 31 78 105 32 157
-35 39 -70 43 -218 25z"/>
<path d="M8337 349 c-8 -13 -32 -58 -52 -99 -32 -65 -35 -79 -26 -103 15 -38
57 -53 98 -33 19 9 45 13 66 9 44 -7 77 22 77 68 0 26 -14 46 -74 107 l-73 75
-16 -24z"/>
<path d="M7460 340 c-11 -11 -20 -29 -20 -40 0 -11 -5 -20 -10 -20 -19 0 -60
-48 -60 -70 0 -11 11 -32 25 -45 22 -23 31 -25 125 -25 92 0 101 2 96 18 -3 9
-14 50 -25 91 -11 41 -28 82 -37 92 -22 25 -69 24 -94 -1z"/>
<path d="M1164 340 c-32 -12 -64 -59 -64 -91 0 -24 9 -68 45 -227 5 -20 11
-22 71 -22 57 0 74 5 139 41 90 49 115 78 115 131 0 31 -7 46 -30 70 -28 28
-35 30 -81 26 -47 -5 -51 -3 -65 23 -24 48 -81 69 -130 49z"/>
<path d="M3575 328 c-31 -17 -45 -39 -45 -74 0 -26 -7 -36 -34 -52 -62 -37
-57 -127 9 -152 26 -10 275 9 275 21 0 7 -75 192 -91 225 -20 38 -75 54 -114
32z"/>
<path d="M12782 318 c-16 -16 -15 -61 2 -123 l14 -50 1 93 c1 50 0 92 -2 92
-2 0 -8 -5 -15 -12z"/>
<path d="M10297 91 l-138 -86 162 -3 c89 -1 163 -1 165 1 5 4 -37 160 -45 168
-3 3 -68 -33 -144 -80z"/>
<path d="M7740 110 c-8 -5 -25 -10 -37 -10 -29 0 -47 -33 -33 -60 25 -46 100
-56 118 -15 18 39 15 73 -7 85 -24 12 -22 12 -41 0z"/>
<path d="M6129 20 l-24 -19 38 -1 c40 0 40 0 31 24 -8 21 -17 20 -45 -4z"/>
<path d="M11000 10 l-45 -7 53 -1 c33 -1 51 2 47 8 -3 6 -7 9 -8 8 -1 0 -22
-4 -47 -8z"/>
</g>
</svg>
