<?xml version="1.0" standalone="no"?>
<!DOCTYPE svg PUBLIC "-//W3C//DTD SVG 20010904//EN"
 "http://www.w3.org/TR/2001/REC-SVG-20010904/DTD/svg10.dtd">
<svg version="1.0" xmlns="http://www.w3.org/2000/svg"
 width="1254.000000pt" height="1280.000000pt" viewBox="0 0 1254.000000 1280.000000"
 preserveAspectRatio="xMidYMid meet">
<g transform="translate(0.000000,1280.000000) scale(0.100000,-0.100000)"
fill="#000000" stroke="none">
<path d="M5124 12761 c-33 -22 -104 -85 -159 -141 l-100 -101 95 -91 c52 -49
114 -103 137 -120 81 -55 155 -50 229 15 52 45 194 212 194 227 0 5 -46 50
-102 101 -102 90 -188 149 -219 149 -9 0 -43 -18 -75 -39z"/>
<path d="M3962 11656 c-110 -36 -167 -126 -166 -261 0 -69 5 -90 32 -149 18
-38 32 -85 32 -105 0 -134 132 -271 261 -271 104 0 198 62 241 158 38 87 28
217 -22 292 -10 14 -20 55 -23 92 -10 108 -61 188 -149 234 -42 22 -154 27
-206 10z"/>
<path d="M1864 11605 c-754 -110 -1307 -512 -1487 -1081 -50 -158 -62 -244
-61 -454 0 -196 17 -336 57 -470 l13 -45 13 125 c77 761 413 1279 951 1467
150 53 246 68 442 68 l176 0 7 180 c8 190 6 217 -10 221 -5 1 -51 -4 -101 -11z"/>
<path d="M9100 11580 c-501 -69 -890 -351 -1111 -806 -49 -102 -143 -366 -137
-385 2 -6 57 67 123 162 256 366 394 509 598 619 294 158 737 180 1103 54 94
-32 253 -109 318 -154 26 -17 53 -30 59 -27 7 3 59 78 116 167 78 124 100 165
89 171 -69 45 -391 144 -583 180 -124 24 -461 34 -575 19z"/>
<path d="M6564 10839 c-23 -11 -95 -71 -160 -134 l-119 -113 155 -156 c85 -86
159 -156 165 -156 6 0 84 77 174 170 144 151 161 172 150 187 -33 39 -206 186
-240 204 -48 24 -74 24 -125 -2z"/>
<path d="M8565 10469 c-229 -30 -436 -145 -534 -298 -41 -63 -39 -70 6 -30 91
79 237 119 441 119 169 0 312 -24 485 -80 382 -126 654 -355 683 -575 4 -28
11 -55 16 -62 13 -16 -35 -45 -138 -82 -108 -39 -217 -61 -341 -68 l-102 -6
-88 57 c-212 138 -393 196 -620 200 -105 2 -113 4 -155 31 -23 16 -86 73 -138
125 -113 113 -181 221 -227 357 -17 52 -33 97 -36 99 -10 10 -30 -102 -35
-194 -9 -175 35 -316 151 -493 17 -25 17 -28 0 -44 -17 -17 -16 -18 11 -13 26
5 39 -4 111 -71 216 -203 510 -329 815 -347 103 -6 106 -7 143 -43 148 -139
257 -350 257 -494 0 -65 -25 -166 -45 -179 -5 -4 -56 -8 -111 -8 -361 0 -788
192 -1052 475 -130 138 -231 313 -273 471 -22 84 -31 267 -17 354 l8 45 -23
-28 c-44 -53 -90 -138 -120 -224 -29 -82 -31 -98 -31 -223 -1 -157 13 -216 79
-357 60 -128 134 -232 240 -338 197 -197 444 -334 692 -384 111 -23 303 -28
383 -11 25 6 54 12 65 15 28 6 347 244 379 283 95 111 68 343 -69 601 -25 46
-45 87 -45 91 0 4 25 18 56 31 31 12 89 44 129 69 58 38 78 59 105 106 18 33
71 117 119 188 83 124 86 130 89 195 3 50 -1 80 -18 124 -54 143 -227 341
-381 436 -236 145 -577 216 -864 180z"/>
<path d="M10049 10345 c-15 -8 -34 -31 -44 -52 -23 -48 -39 -188 -30 -260 6
-49 13 -63 51 -102 40 -41 44 -48 44 -95 0 -60 23 -111 63 -140 25 -19 43 -21
150 -21 67 0 152 4 189 8 l67 8 5 62 c3 34 8 133 10 219 l6 157 -48 3 -47 3
-3 106 -3 106 -67 7 c-124 11 -315 6 -343 -9z"/>
<path d="M1535 10234 c-367 -68 -654 -263 -793 -539 -33 -66 -76 -198 -70
-216 2 -6 21 15 42 46 131 190 453 355 811 415 109 19 156 21 290 17 180 -5
248 -19 365 -75 53 -25 92 -52 133 -95 46 -48 60 -57 71 -48 28 23 25 -7 -6
-66 -65 -125 -198 -260 -339 -344 l-65 -39 -105 11 c-223 23 -466 -23 -646
-122 l-73 -39 -97 14 c-225 34 -430 116 -578 230 -32 25 -61 44 -63 41 -3 -3
14 -43 37 -90 86 -174 232 -319 409 -409 55 -28 57 -31 36 -81 -7 -17 -2 -15
26 8 23 20 39 27 54 22 353 -112 713 -84 1008 78 l57 31 58 -18 c83 -26 211
-87 280 -134 106 -72 183 -179 199 -274 4 -24 12 -38 21 -38 50 0 -57 -84
-192 -150 -185 -91 -374 -126 -633 -117 -492 16 -896 238 -1068 585 -47 95
-54 91 -54 -33 0 -313 169 -570 477 -724 321 -160 744 -179 1091 -48 168 63
344 186 357 250 10 44 57 161 117 290 45 98 50 114 44 155 -3 26 -18 72 -33
102 -39 79 -184 222 -311 305 -65 42 -100 71 -95 78 4 7 22 33 40 58 18 25 47
77 65 114 l32 69 3 244 3 245 -25 44 c-51 86 -198 175 -380 229 -78 23 -111
27 -255 30 -116 2 -189 -1 -245 -12z"/>
<path d="M5870 9444 c-14 -2 -65 -9 -115 -15 -383 -47 -746 -193 -1030 -413
-87 -68 -218 -199 -290 -291 -329 -421 -451 -990 -344 -1600 10 -60 23 -123
27 -140 8 -26 10 -27 15 -10 3 11 18 135 31 275 33 324 41 385 66 512 93 455
345 762 843 1028 190 101 308 138 551 175 289 44 296 51 296 313 0 132 -3 172
-12 171 -7 -1 -24 -3 -38 -5z"/>
<path d="M3384 9394 c-66 -23 -120 -76 -144 -141 -11 -31 -29 -68 -39 -82 -33
-48 -46 -96 -46 -167 1 -128 71 -227 184 -261 128 -37 266 23 316 136 9 20 22
47 30 61 55 97 58 107 63 183 3 59 0 89 -13 124 -23 59 -79 121 -130 144 -49
23 -162 24 -221 3z"/>
<path d="M7507 9068 c-122 -211 -197 -435 -228 -688 -14 -116 -6 -358 16 -485
62 -353 222 -699 464 -1000 39 -49 171 -195 293 -323 121 -128 259 -279 306
-335 149 -178 248 -347 299 -513 25 -82 27 -102 27 -259 0 -152 -3 -180 -26
-264 -15 -54 -21 -88 -13 -80 7 8 76 113 153 234 l141 220 12 106 c26 239 -37
475 -187 695 -81 119 -180 230 -444 499 -141 143 -290 303 -332 355 -224 282
-374 582 -449 898 -61 254 -66 596 -14 897 8 43 13 81 11 83 -2 1 -15 -16 -29
-40z"/>
<path d="M750 8204 c0 -301 86 -603 250 -883 176 -303 503 -597 845 -760 149
-72 264 -112 556 -196 423 -122 558 -169 723 -251 281 -141 445 -324 537 -597
l36 -108 6 198 c3 109 11 225 17 259 12 61 12 61 -28 141 -105 209 -251 365
-448 482 -144 85 -300 140 -729 256 -488 133 -731 242 -1010 455 -98 74 -283
259 -356 355 -127 166 -253 391 -345 616 -25 63 -48 116 -50 118 -2 2 -4 -36
-4 -85z"/>
<path d="M5560 7814 c-329 -50 -588 -177 -781 -382 -93 -100 -161 -205 -218
-338 -38 -90 -76 -212 -68 -220 2 -2 28 28 57 67 180 243 631 476 1060 550
128 22 348 26 440 9 182 -34 299 -109 387 -246 11 -18 14 -17 40 14 30 34 43
40 43 19 0 -25 -87 -192 -132 -252 -70 -95 -174 -191 -288 -267 l-105 -70
-101 6 c-267 17 -536 -42 -738 -160 l-80 -47 -96 6 c-271 17 -562 119 -745
261 -38 30 -71 53 -73 51 -2 -2 12 -42 31 -88 93 -228 277 -425 500 -535 54
-27 68 -38 64 -52 -4 -16 -2 -17 18 -8 17 8 44 4 111 -13 76 -20 114 -23 264
-24 153 0 186 3 264 24 118 31 349 117 504 188 l124 57 68 -12 c100 -17 223
-58 327 -109 120 -58 229 -156 272 -246 31 -62 59 -195 44 -206 -62 -46 -199
-130 -257 -157 -244 -112 -565 -168 -837 -145 -533 46 -947 286 -1136 658 -26
51 -49 93 -51 93 -3 0 -2 -57 0 -127 5 -107 11 -143 36 -223 196 -598 1075
-971 1749 -741 137 47 226 104 338 216 115 115 145 167 264 448 63 150 71 175
71 232 0 113 -49 206 -174 328 -74 73 -230 182 -308 217 -26 11 -50 24 -52 29
-3 5 8 28 26 52 96 132 119 241 121 574 2 230 1 242 -20 281 -67 126 -303 246
-568 289 -111 18 -269 18 -395 -1z"/>
<path d="M9935 7706 c-136 -34 -198 -112 -199 -246 0 -63 5 -87 31 -145 22
-48 33 -91 36 -136 8 -112 71 -201 166 -235 20 -7 65 -13 101 -13 141 -1 241
88 265 236 9 57 -10 142 -44 195 -20 30 -30 61 -35 105 -7 77 -24 118 -67 168
-59 67 -160 95 -254 71z"/>
<path d="M10955 6675 c-288 -53 -558 -198 -780 -420 -86 -86 -251 -292 -242
-302 3 -2 45 25 93 60 249 182 543 318 819 378 133 30 372 37 500 15 180 -31
342 -96 495 -199 92 -63 241 -206 317 -304 31 -40 57 -73 59 -73 3 0 264 219
293 246 19 18 0 39 -134 147 -147 118 -292 211 -450 287 -157 76 -251 110
-405 147 -135 32 -436 41 -565 18z"/>
<path d="M292 6430 c-45 -20 -272 -233 -272 -255 0 -21 213 -207 265 -231 58
-28 74 -29 119 -10 46 19 106 75 193 180 l74 89 -53 54 c-109 111 -224 194
-270 193 -7 0 -32 -9 -56 -20z"/>
<path d="M1498 5968 c-362 -361 -584 -787 -638 -1221 -20 -159 -9 -425 25
-571 77 -339 224 -616 477 -897 91 -102 292 -278 304 -267 2 3 -68 120 -157
262 -252 403 -304 506 -363 708 -47 163 -56 299 -31 454 18 111 37 175 119
391 150 397 210 485 476 706 119 98 150 183 101 278 -26 49 -161 239 -185 258
-12 11 -33 -5 -128 -101z"/>
<path d="M3113 5979 c-43 -21 -256 -211 -261 -233 -1 -6 18 -31 43 -56 25 -24
45 -49 45 -55 0 -7 -17 -33 -37 -60 -31 -40 -38 -56 -38 -94 0 -57 28 -99 154
-231 l91 -95 170 174 170 173 -51 60 -52 59 71 72 c40 40 72 77 72 82 -1 16
-186 168 -241 198 -62 32 -81 33 -136 6z"/>
<path d="M9816 5810 c-39 -61 -70 -131 -92 -215 -26 -98 -25 -301 3 -403 19
-71 19 -74 1 -86 -20 -14 -14 -26 13 -26 12 0 31 -28 63 -91 136 -272 408
-523 681 -630 33 -13 67 -29 76 -36 9 -8 31 -50 48 -94 96 -242 96 -462 1
-581 -17 -20 -30 -39 -30 -43 0 -3 11 -10 25 -15 33 -13 32 -30 -2 -30 -123 1
-356 90 -478 183 -152 115 -293 288 -388 474 -101 200 -159 396 -176 601 -15
169 8 378 55 496 20 50 -96 -63 -177 -174 -47 -64 -101 -182 -126 -279 -45
-170 -34 -388 29 -576 129 -389 469 -715 843 -810 137 -35 176 -34 265 4 41
18 129 48 195 67 66 20 136 46 155 58 42 28 83 100 107 187 21 79 24 324 4
413 -16 70 -15 71 79 80 125 11 194 40 279 115 42 36 119 101 172 143 122 97
143 133 147 263 4 103 -13 190 -57 295 -42 98 -86 163 -176 258 -382 406 -887
543 -1268 345 -37 -20 -66 -37 -64 -40 2 -2 34 1 72 6 284 40 725 -167 1018
-479 185 -196 279 -412 248 -567 -10 -50 -9 -60 5 -70 14 -10 14 -12 -3 -21
-67 -36 -300 -40 -436 -7 -139 33 -167 48 -217 123 -24 37 -92 114 -150 172
-121 120 -234 195 -367 246 -85 31 -86 33 -130 100 -126 194 -193 385 -211
599 l-7 90 -29 -45z"/>
<path d="M4600 5415 c0 -497 228 -1011 625 -1411 192 -193 378 -330 600 -441
202 -102 318 -139 810 -262 389 -97 527 -136 683 -195 394 -147 638 -342 776
-618 30 -59 65 -147 78 -195 l23 -88 3 322 2 323 -36 72 c-125 250 -322 447
-571 572 -173 86 -332 135 -718 221 -532 119 -680 163 -930 277 -252 116 -471
266 -673 463 -190 184 -331 370 -465 610 -57 102 -170 350 -183 399 -13 55
-24 34 -24 -49z"/>
<path d="M7722 5035 c-46 -20 -72 -42 -190 -157 l-102 -101 50 -53 51 -54 -31
-44 c-66 -98 -49 -148 109 -309 l109 -111 153 158 c85 88 160 168 168 178 12
18 9 24 -35 69 l-48 48 62 70 c34 38 62 74 62 79 0 5 -39 46 -86 91 -146 139
-203 167 -272 136z"/>
<path d="M2925 4903 c-78 -16 -233 -72 -310 -111 -292 -147 -569 -474 -679
-804 -46 -137 -59 -223 -60 -383 0 -165 17 -257 74 -395 30 -72 80 -163 86
-157 2 2 0 28 -6 57 -63 333 202 924 576 1281 128 122 260 207 389 250 95 32
226 32 304 1 40 -16 58 -19 68 -11 23 19 28 -18 27 -191 0 -180 -15 -269 -72
-432 l-28 -83 -89 -62 c-227 -158 -382 -351 -473 -589 l-36 -95 -70 -44 c-149
-93 -324 -163 -496 -200 -19 -4 -107 -10 -195 -14 l-160 -6 60 -33 c186 -102
428 -137 665 -95 148 25 154 25 160 -17 l6 -35 14 45 c16 49 22 52 141 100
199 80 426 242 578 413 89 101 137 173 206 311 l60 120 80 29 c253 91 484 90
617 -5 52 -38 98 -89 98 -110 0 -32 -52 -165 -105 -267 -73 -139 -164 -261
-289 -386 -468 -466 -1120 -630 -1590 -401 -50 24 -92 43 -93 42 -8 -7 64
-100 123 -159 233 -237 585 -326 977 -246 500 101 935 450 1077 864 26 76 50
211 50 283 0 62 -110 503 -141 563 -34 68 -106 114 -236 151 -66 19 -103 22
-248 23 -93 0 -194 -2 -224 -5 l-55 -5 -18 89 c-10 49 -33 123 -51 165 -34 78
-292 464 -344 513 -15 15 -48 34 -72 43 -55 19 -201 19 -296 -2z"/>
<path d="M9104 4755 c-310 -285 -505 -688 -554 -1147 -34 -322 26 -686 169
-1029 22 -52 87 -197 146 -324 223 -478 287 -688 286 -935 0 -194 -48 -353
-155 -519 -25 -39 -44 -71 -42 -71 3 0 55 43 118 96 62 53 154 123 205 157 90
60 93 63 122 134 130 309 125 605 -15 960 -25 64 -104 236 -174 382 -213 443
-280 640 -325 956 -19 130 -19 411 0 543 37 262 146 575 279 801 56 97 48 96
-60 -4z"/>
<path d="M9223 3611 c-45 -3 -88 -12 -95 -19 -14 -14 -18 -385 -5 -433 5 -21
16 -29 44 -36 37 -9 38 -9 49 -78 7 -39 17 -82 23 -97 l11 -28 182 1 c101 0
206 4 233 7 l50 7 13 160 c11 152 10 247 -6 272 -4 6 -23 15 -42 20 l-35 9 -5
92 c-3 55 -10 96 -18 104 -22 22 -222 31 -399 19z"/>
<path d="M2047 2330 c-142 -146 -161 -176 -155 -239 3 -28 14 -62 28 -81 l23
-32 -69 -69 -69 -70 55 -49 c214 -193 296 -221 408 -140 37 27 192 202 192
217 0 4 -23 33 -50 64 -58 67 -58 68 14 139 25 24 46 49 46 55 0 11 -301 315
-311 315 -4 0 -54 -49 -112 -110z"/>
<path d="M6575 2331 c-237 -43 -416 -109 -879 -325 -126 -59 -266 -122 -311
-141 -480 -198 -977 -253 -1451 -159 -295 58 -629 189 -913 358 -52 31 -95 55
-97 53 -8 -8 130 -169 217 -254 325 -319 763 -524 1254 -589 231 -31 547 -17
784 35 52 11 97 19 101 16 4 -2 10 -28 13 -57 8 -61 30 -96 78 -121 30 -16 51
-18 179 -13 80 4 161 10 180 14 l35 8 6 178 c4 98 11 182 17 188 18 18 429
186 580 237 551 186 932 151 1338 -124 53 -36 98 -64 100 -62 2 2 -42 69 -99
149 -279 399 -431 531 -697 605 -87 24 -314 26 -435 4z"/>
<path d="M10747 2296 c-159 -57 -214 -227 -128 -396 20 -40 31 -75 31 -103 0
-24 7 -66 15 -93 53 -180 296 -240 436 -108 74 70 102 222 59 322 -12 28 -28
57 -36 63 -8 6 -14 30 -14 53 0 160 -109 277 -259 276 -37 -1 -83 -7 -104 -14z"/>
<path d="M6807 1126 c-53 -15 -105 -48 -137 -88 -52 -67 -66 -196 -30 -290 11
-29 20 -76 20 -104 0 -109 65 -226 150 -272 38 -20 55 -23 115 -19 44 2 85 12
111 25 53 27 117 100 132 150 17 55 15 164 -3 210 -9 21 -17 77 -18 127 -3
101 -21 147 -79 202 -62 60 -171 84 -261 59z"/>
<path d="M9983 699 c-63 -19 -90 -77 -99 -224 -8 -116 5 -164 53 -204 35 -29
38 -35 44 -102 8 -87 28 -116 100 -147 59 -24 85 -25 266 -1 l102 13 5 80 c3
45 7 143 9 218 l4 136 -48 7 -49 7 0 104 c0 75 -4 106 -12 109 -30 9 -346 13
-375 4z"/>
</g>
</svg>
