<?xml version="1.0" standalone="no"?>
<!DOCTYPE svg PUBLIC "-//W3C//DTD SVG 20010904//EN"
 "http://www.w3.org/TR/2001/REC-SVG-20010904/DTD/svg10.dtd">
<svg version="1.0" xmlns="http://www.w3.org/2000/svg"
 width="970.000000pt" height="1280.000000pt" viewBox="0 0 970.000000 1280.000000"
 preserveAspectRatio="xMidYMid meet">
<metadata>
Created by potrace 1.15, written by Peter Selinger 2001-2017
</metadata>
<g transform="translate(0.000000,1280.000000) scale(0.100000,-0.100000)"
fill="#000000" stroke="none">
<path d="M4081 12764 c-60 -53 -76 -106 -75 -244 0 -66 7 -147 16 -190 44
-202 155 -504 292 -795 105 -224 354 -700 362 -692 2 1 -26 75 -62 162 -75
184 -190 520 -233 680 -74 278 -106 491 -99 658 8 171 51 270 138 319 47 27
49 34 13 42 -16 4 -90 27 -166 52 -76 24 -140 44 -143 44 -2 0 -22 -16 -43
-36z"/>
<path d="M4695 12734 c-76 -39 -130 -127 -162 -264 -26 -108 -25 -565 0 -765
31 -240 133 -812 143 -802 3 2 -1 91 -7 198 -6 109 -9 304 -6 444 13 625 122
948 334 990 l56 11 -160 102 c-88 56 -162 102 -164 102 -2 0 -17 -7 -34 -16z"/>
<path d="M3403 12629 c-91 -99 -66 -258 79 -504 159 -271 519 -686 945 -1086
112 -105 203 -193 203 -195 0 -16 -480 225 -709 356 -551 316 -869 584 -953
804 -21 54 -25 146 -9 189 6 15 9 27 8 27 -1 0 -72 -23 -157 -49 -149 -47
-155 -50 -168 -83 -19 -45 -11 -123 18 -184 35 -74 201 -234 340 -326 324
-215 801 -440 1445 -680 88 -33 167 -61 175 -62 9 -1 21 -5 28 -10 24 -15 10
4 -74 101 -471 536 -798 1035 -880 1343 -25 97 -24 213 4 275 13 27 33 60 44
72 l21 23 -50 0 c-27 0 -103 3 -169 6 -116 6 -119 6 -141 -17z"/>
<path d="M5230 12457 c-61 -19 -159 -128 -217 -242 -123 -240 -227 -656 -292
-1170 -11 -82 -18 -151 -16 -153 2 -2 9 16 15 39 25 102 116 375 172 518 147
376 320 638 468 709 50 24 117 31 169 18 l35 -8 -25 28 c-255 303 -233 285
-309 261z"/>
<path d="M5595 11973 c-223 -89 -548 -487 -830 -1018 -27 -49 -46 -88 -43 -85
3 3 40 48 83 100 104 126 420 441 515 513 150 112 309 187 399 187 57 0 109
-18 148 -53 20 -18 34 -25 31 -17 -3 8 -34 94 -68 190 -35 96 -68 181 -73 188
-13 17 -114 14 -162 -5z"/>
<path d="M5665 11413 c-193 -46 -485 -209 -770 -428 -123 -96 -198 -159 -180
-153 6 2 51 23 100 46 331 158 609 242 804 243 97 0 149 -10 197 -40 37 -23
78 -74 91 -116 8 -23 12 25 18 189 8 246 11 235 -65 256 -35 10 -158 12 -195
3z"/>
<path d="M2197 11137 l-119 -101 7 -45 c9 -60 26 -90 74 -134 201 -182 819
-231 1771 -142 203 19 681 77 676 82 -2 2 -97 -1 -212 -7 -398 -19 -872 -9
-1184 26 -539 60 -825 184 -884 384 l-11 38 -118 -101z"/>
<path d="M5378 11014 c-105 -16 -250 -52 -373 -92 -120 -40 -286 -104 -282
-109 3 -2 67 2 143 8 260 22 531 -2 685 -60 108 -41 178 -126 180 -218 1 -60
0 -61 85 185 76 221 77 210 -21 257 -96 45 -247 56 -417 29z"/>
<path d="M4686 10784 c-4 -11 -79 -208 -166 -439 -87 -231 -208 -553 -270
-715 -61 -162 -141 -374 -177 -470 -73 -197 -288 -769 -885 -2355 -886 -2358
-1344 -3576 -1650 -4389 -175 -468 -320 -852 -322 -854 -2 -2 -78 -10 -168
-18 -409 -35 -718 -100 -895 -186 -68 -33 -138 -101 -149 -142 -16 -67 27
-145 123 -221 181 -142 357 -205 641 -226 l135 -10 66 -61 c127 -116 357 -251
521 -303 74 -24 103 -28 215 -29 139 -1 201 10 294 51 l54 23 46 -29 c58 -37
189 -103 261 -131 142 -56 385 -126 471 -134 24 -2 83 -18 131 -35 140 -49
346 -101 433 -107 94 -8 200 8 296 42 l66 24 79 -21 c57 -15 123 -22 239 -26
184 -6 303 6 416 44 l76 25 69 -21 c248 -72 608 -91 797 -42 93 24 202 79 246
125 l31 32 73 -25 c61 -21 90 -25 187 -25 108 0 121 2 207 35 132 51 242 121
348 221 l91 87 97 -6 c59 -4 120 -1 159 6 66 13 177 64 242 112 l39 28 79 -40
c233 -117 488 -101 621 38 l27 29 68 -17 c39 -11 105 -18 157 -18 142 -1 233
39 415 184 60 47 71 52 150 64 202 32 414 125 516 227 52 51 69 62 107 68 239
36 488 379 380 524 -86 115 -264 158 -613 148 -113 -4 -228 -10 -256 -14 l-52
-8 -57 130 c-32 72 -175 390 -318 706 -485 1074 -679 1505 -784 1740 -58 129
-167 372 -243 540 -76 168 -179 397 -230 510 -51 113 -208 462 -350 775 -142
314 -317 703 -390 865 -114 253 -264 586 -615 1365 -39 88 -217 482 -395 875
-177 393 -396 879 -487 1079 -199 441 -188 419 -197 395z m4778 -9013 c86 -23
150 -58 181 -100 15 -20 20 -41 20 -91 0 -57 -5 -74 -39 -135 -74 -131 -214
-243 -329 -262 l-35 -5 5 66 c5 57 2 72 -21 119 -58 118 -197 207 -338 215
-93 5 -154 -13 -193 -59 -98 -118 118 -323 387 -368 l100 -17 -48 -43 c-65
-57 -154 -106 -268 -146 -92 -33 -253 -71 -262 -63 -2 3 10 22 27 44 96 121
110 236 38 318 -41 48 -99 68 -190 68 -228 -2 -365 -176 -260 -331 14 -22 42
-52 61 -66 43 -31 148 -65 204 -65 l41 0 -30 -25 c-66 -54 -207 -146 -245
-160 -107 -38 -209 -39 -331 -5 l-36 10 21 43 c33 65 30 203 -5 278 -68 145
-207 217 -345 179 -67 -19 -104 -60 -104 -116 0 -49 18 -101 50 -142 71 -91
168 -170 278 -226 28 -14 52 -30 52 -35 0 -16 -104 -80 -165 -102 -83 -30
-213 -29 -310 1 -57 18 -178 72 -194 86 -2 2 21 30 52 63 155 167 155 328 2
362 -104 23 -269 -16 -309 -73 -22 -31 -20 -101 3 -146 25 -50 89 -121 151
-168 l50 -38 -44 -31 c-24 -17 -77 -46 -117 -65 -62 -28 -86 -34 -170 -38 -53
-2 -114 -1 -134 2 -34 7 -36 9 -21 24 8 10 27 43 40 73 109 238 -46 374 -357
315 -158 -31 -222 -95 -181 -181 36 -77 180 -169 347 -220 100 -31 100 -23 3
-114 -100 -95 -248 -180 -385 -221 -62 -19 -88 -22 -170 -17 -77 4 -179 26
-199 43 -2 1 10 31 26 66 38 78 48 151 32 221 -38 161 -159 258 -325 260 -82
2 -126 -17 -151 -65 -52 -101 88 -316 289 -443 l77 -49 -32 -28 c-44 -38 -159
-94 -233 -114 -166 -44 -546 -24 -773 42 l-54 15 39 28 c98 71 147 159 147
266 0 57 -5 81 -27 128 -48 97 -138 156 -218 141 -78 -14 -172 -94 -210 -178
-26 -57 -25 -157 1 -212 24 -49 103 -126 154 -151 20 -9 36 -20 36 -24 0 -7
-5 -9 -100 -34 -133 -37 -416 -37 -570 -2 l-54 12 79 50 c45 27 116 85 161
131 219 220 205 426 -32 464 -226 37 -466 -138 -482 -350 -8 -114 35 -193 140
-260 l61 -38 -52 -16 c-196 -58 -357 -44 -671 60 l-82 27 48 19 c118 47 253
164 305 266 32 62 33 148 4 189 -35 47 -122 84 -212 90 -190 13 -427 -81 -491
-196 -25 -45 -28 -107 -8 -154 18 -42 87 -107 160 -151 33 -20 57 -36 55 -36
-21 0 -275 76 -355 106 -104 39 -260 113 -307 147 l-29 20 64 57 c89 81 123
145 123 236 0 61 -4 77 -30 119 -17 27 -50 63 -74 80 -38 27 -51 30 -115 30
-62 0 -78 -4 -114 -27 -97 -65 -126 -194 -67 -308 15 -30 55 -83 88 -118 70
-72 71 -70 -38 -105 -94 -30 -293 -31 -404 -3 -140 36 -408 189 -529 301 l-56
52 95 6 c215 13 411 77 485 159 29 33 34 45 34 87 0 65 -40 119 -135 183 -223
150 -505 129 -605 -45 -53 -92 -38 -218 40 -327 11 -15 20 -31 20 -35 0 -21
-307 20 -420 56 -217 69 -420 231 -420 336 0 152 389 275 1056 334 l130 11
205 -75 c1533 -562 3136 -705 4844 -431 824 132 1757 408 2419 714 113 52 173
59 476 56 193 -3 236 -6 304 -25z m-1179 -170 c-47 -21 -92 -36 -85 -28 7 8
103 46 115 46 6 0 -8 -8 -30 -18z m-105 -40 c-66 -38 -615 -213 -925 -295
-344 -92 -877 -204 -1045 -220 -30 -3 6 5 80 19 610 110 1166 253 1685 433
196 68 235 80 205 63z m760 -11 c117 -22 242 -109 281 -195 20 -44 25 -119 9
-159 -8 -23 -15 -26 -58 -26 -60 0 -185 31 -244 61 -116 58 -208 158 -208 225
0 37 43 80 88 90 15 3 32 7 37 9 19 6 42 5 95 -5z m-368 -271 c39 -9 63 -22
90 -48 47 -48 57 -95 34 -167 -18 -58 -98 -172 -129 -183 -26 -10 -143 5 -191
24 -134 54 -186 188 -109 283 37 46 81 72 147 88 66 16 94 16 158 3z m-7369
-14 c172 -36 348 -182 322 -265 -32 -102 -236 -181 -531 -206 l-81 -6 -32 46
c-101 146 -100 293 1 369 96 72 190 90 321 62z m6556 -139 c140 -71 204 -265
136 -409 l-17 -36 -37 15 c-198 82 -381 288 -341 385 29 69 165 92 259 45z
m-1679 -101 c-79 -14 -206 -27 -180 -19 28 8 195 32 225 32 17 0 -4 -6 -45
-13z m1163 4 c57 -16 77 -40 77 -97 0 -64 -38 -139 -110 -216 l-57 -60 -42 29
c-51 34 -136 125 -158 168 -20 39 -22 99 -4 121 44 53 198 82 294 55z m-1390
-36 c-7 -2 -19 -2 -25 0 -7 3 -2 5 12 5 14 0 19 -2 13 -5z m-90 -10 c-7 -2
-21 -2 -30 0 -10 3 -4 5 12 5 17 0 24 -2 18 -5z m-70 -10 c-7 -2 -21 -2 -30 0
-10 3 -4 5 12 5 17 0 24 -2 18 -5z m-3552 -39 c33 -16 78 -69 96 -111 21 -52
16 -122 -13 -181 -27 -55 -135 -162 -164 -162 -24 0 -123 103 -154 161 -38 68
-44 142 -18 201 43 97 159 139 253 92z m4469 -60 c53 -31 80 -77 80 -138 0
-54 -31 -142 -68 -194 l-22 -31 -73 20 c-213 59 -405 206 -360 278 37 58 153
92 303 88 85 -2 112 -6 140 -23z m-1002 -175 c59 -29 119 -89 145 -148 30 -65
30 -188 0 -251 -41 -89 -38 -88 -128 -29 -190 123 -322 321 -274 410 28 53
164 62 257 18z m-1530 -21 c64 -32 84 -63 84 -129 -1 -131 -159 -318 -355
-423 l-49 -25 -49 24 c-154 78 -202 213 -130 360 34 68 106 142 173 176 105
54 239 61 326 17z m-914 -9 c73 -27 106 -66 106 -125 0 -132 -180 -310 -367
-363 -27 -8 -43 -4 -100 23 -81 39 -165 101 -197 145 -71 96 -21 198 133 275
128 65 318 85 425 45z m1462 -35 c82 -39 142 -157 131 -256 -12 -95 -75 -187
-161 -233 l-37 -20 -55 30 c-79 42 -149 121 -164 185 -21 86 14 178 96 249 69
61 127 75 190 45z"/>
<path d="M4435 10679 c-204 -120 -743 -391 -946 -477 -444 -188 -756 -271
-982 -260 -122 6 -197 32 -247 83 -19 19 -36 35 -39 35 -4 0 -35 -55 -70 -123
-73 -139 -74 -152 -13 -216 191 -201 837 24 1842 642 224 138 651 417 635 416
-5 -1 -86 -46 -180 -100z"/>
</g>
</svg>
